<mxfile host="app.diagrams.net" modified="2021-09-14T13:03:56.741Z" agent="5.0 (Windows NT 10.0; Win64; x64) AppleWebKit/537.36 (KHTML, like Gecko) Chrome/93.0.4577.63 Safari/537.36" etag="JGSUx2O8L23ceaH4I3D3" version="15.1.4" type="github">
  <diagram id="0hhGt_7l2Agp54aYoJm0" name="Page-1">
    <mxGraphModel dx="1022" dy="436" grid="1" gridSize="10" guides="1" tooltips="1" connect="1" arrows="1" fold="1" page="1" pageScale="1" pageWidth="827" pageHeight="1169" math="0" shadow="0">
      <root>
        <mxCell id="0" />
        <mxCell id="1" parent="0" />
        <mxCell id="J9K5oojxjtf_GO5V4qHu-5" style="edgeStyle=orthogonalEdgeStyle;rounded=0;orthogonalLoop=1;jettySize=auto;html=1;exitX=0.5;exitY=1;exitDx=0;exitDy=0;" edge="1" parent="1" source="J9K5oojxjtf_GO5V4qHu-1" target="J9K5oojxjtf_GO5V4qHu-2">
          <mxGeometry relative="1" as="geometry" />
        </mxCell>
        <mxCell id="J9K5oojxjtf_GO5V4qHu-1" value="" style="ellipse;whiteSpace=wrap;html=1;" vertex="1" parent="1">
          <mxGeometry x="220" y="80" width="100" height="50" as="geometry" />
        </mxCell>
        <mxCell id="J9K5oojxjtf_GO5V4qHu-6" style="edgeStyle=orthogonalEdgeStyle;rounded=0;orthogonalLoop=1;jettySize=auto;html=1;exitX=0.5;exitY=1;exitDx=0;exitDy=0;entryX=0.5;entryY=0;entryDx=0;entryDy=0;" edge="1" parent="1" source="J9K5oojxjtf_GO5V4qHu-2" target="J9K5oojxjtf_GO5V4qHu-3">
          <mxGeometry relative="1" as="geometry" />
        </mxCell>
        <mxCell id="J9K5oojxjtf_GO5V4qHu-2" value="" style="rounded=1;whiteSpace=wrap;html=1;" vertex="1" parent="1">
          <mxGeometry x="220" y="160" width="100" height="50" as="geometry" />
        </mxCell>
        <mxCell id="J9K5oojxjtf_GO5V4qHu-7" style="edgeStyle=orthogonalEdgeStyle;rounded=0;orthogonalLoop=1;jettySize=auto;html=1;exitX=0.5;exitY=1;exitDx=0;exitDy=0;entryX=0.5;entryY=0;entryDx=0;entryDy=0;" edge="1" parent="1" source="J9K5oojxjtf_GO5V4qHu-3" target="J9K5oojxjtf_GO5V4qHu-4">
          <mxGeometry relative="1" as="geometry" />
        </mxCell>
        <mxCell id="J9K5oojxjtf_GO5V4qHu-3" value="" style="rounded=1;whiteSpace=wrap;html=1;" vertex="1" parent="1">
          <mxGeometry x="220" y="240" width="100" height="50" as="geometry" />
        </mxCell>
        <mxCell id="J9K5oojxjtf_GO5V4qHu-9" style="edgeStyle=orthogonalEdgeStyle;rounded=0;orthogonalLoop=1;jettySize=auto;html=1;exitX=1;exitY=0.5;exitDx=0;exitDy=0;entryX=0.5;entryY=0;entryDx=0;entryDy=0;" edge="1" parent="1" source="J9K5oojxjtf_GO5V4qHu-4" target="J9K5oojxjtf_GO5V4qHu-8">
          <mxGeometry relative="1" as="geometry">
            <mxPoint x="520" y="355" as="targetPoint" />
          </mxGeometry>
        </mxCell>
        <mxCell id="J9K5oojxjtf_GO5V4qHu-31" style="edgeStyle=orthogonalEdgeStyle;rounded=0;orthogonalLoop=1;jettySize=auto;html=1;exitX=0;exitY=0.5;exitDx=0;exitDy=0;" edge="1" parent="1" source="J9K5oojxjtf_GO5V4qHu-4" target="J9K5oojxjtf_GO5V4qHu-30">
          <mxGeometry relative="1" as="geometry">
            <Array as="points">
              <mxPoint x="198" y="355" />
            </Array>
          </mxGeometry>
        </mxCell>
        <mxCell id="J9K5oojxjtf_GO5V4qHu-4" value="" style="rounded=1;whiteSpace=wrap;html=1;" vertex="1" parent="1">
          <mxGeometry x="220" y="330" width="100" height="50" as="geometry" />
        </mxCell>
        <mxCell id="J9K5oojxjtf_GO5V4qHu-13" style="edgeStyle=orthogonalEdgeStyle;rounded=0;orthogonalLoop=1;jettySize=auto;html=1;exitX=0.5;exitY=1;exitDx=0;exitDy=0;entryX=0.5;entryY=0;entryDx=0;entryDy=0;" edge="1" parent="1" source="J9K5oojxjtf_GO5V4qHu-8" target="J9K5oojxjtf_GO5V4qHu-11">
          <mxGeometry relative="1" as="geometry" />
        </mxCell>
        <mxCell id="J9K5oojxjtf_GO5V4qHu-8" value="" style="rounded=0;whiteSpace=wrap;html=1;" vertex="1" parent="1">
          <mxGeometry x="460" y="380" width="110" height="40" as="geometry" />
        </mxCell>
        <mxCell id="J9K5oojxjtf_GO5V4qHu-14" style="edgeStyle=orthogonalEdgeStyle;rounded=0;orthogonalLoop=1;jettySize=auto;html=1;exitX=0.5;exitY=1;exitDx=0;exitDy=0;entryX=0.5;entryY=0;entryDx=0;entryDy=0;" edge="1" parent="1" source="J9K5oojxjtf_GO5V4qHu-11" target="J9K5oojxjtf_GO5V4qHu-12">
          <mxGeometry relative="1" as="geometry" />
        </mxCell>
        <mxCell id="J9K5oojxjtf_GO5V4qHu-11" value="" style="rounded=1;whiteSpace=wrap;html=1;" vertex="1" parent="1">
          <mxGeometry x="465" y="450" width="100" height="50" as="geometry" />
        </mxCell>
        <mxCell id="J9K5oojxjtf_GO5V4qHu-17" style="edgeStyle=orthogonalEdgeStyle;rounded=0;orthogonalLoop=1;jettySize=auto;html=1;exitX=0;exitY=0.5;exitDx=0;exitDy=0;entryX=0.5;entryY=0;entryDx=0;entryDy=0;" edge="1" parent="1" source="J9K5oojxjtf_GO5V4qHu-12" target="J9K5oojxjtf_GO5V4qHu-15">
          <mxGeometry relative="1" as="geometry" />
        </mxCell>
        <mxCell id="J9K5oojxjtf_GO5V4qHu-18" style="edgeStyle=orthogonalEdgeStyle;rounded=0;orthogonalLoop=1;jettySize=auto;html=1;exitX=1;exitY=0.5;exitDx=0;exitDy=0;" edge="1" parent="1" source="J9K5oojxjtf_GO5V4qHu-12" target="J9K5oojxjtf_GO5V4qHu-16">
          <mxGeometry relative="1" as="geometry" />
        </mxCell>
        <mxCell id="J9K5oojxjtf_GO5V4qHu-12" value="" style="rounded=1;whiteSpace=wrap;html=1;" vertex="1" parent="1">
          <mxGeometry x="465" y="530" width="100" height="50" as="geometry" />
        </mxCell>
        <mxCell id="J9K5oojxjtf_GO5V4qHu-22" style="edgeStyle=orthogonalEdgeStyle;rounded=0;orthogonalLoop=1;jettySize=auto;html=1;exitX=0.5;exitY=1;exitDx=0;exitDy=0;entryX=0.5;entryY=0;entryDx=0;entryDy=0;" edge="1" parent="1" source="J9K5oojxjtf_GO5V4qHu-15" target="J9K5oojxjtf_GO5V4qHu-19">
          <mxGeometry relative="1" as="geometry" />
        </mxCell>
        <mxCell id="J9K5oojxjtf_GO5V4qHu-15" value="" style="rounded=1;whiteSpace=wrap;html=1;" vertex="1" parent="1">
          <mxGeometry x="345" y="600" width="105" height="50" as="geometry" />
        </mxCell>
        <mxCell id="J9K5oojxjtf_GO5V4qHu-45" style="edgeStyle=orthogonalEdgeStyle;rounded=0;orthogonalLoop=1;jettySize=auto;html=1;exitX=0.5;exitY=1;exitDx=0;exitDy=0;entryX=1;entryY=0.5;entryDx=0;entryDy=0;" edge="1" parent="1" source="J9K5oojxjtf_GO5V4qHu-16" target="J9K5oojxjtf_GO5V4qHu-29">
          <mxGeometry relative="1" as="geometry" />
        </mxCell>
        <mxCell id="J9K5oojxjtf_GO5V4qHu-16" value="" style="rounded=1;whiteSpace=wrap;html=1;" vertex="1" parent="1">
          <mxGeometry x="620" y="600" width="110" height="50" as="geometry" />
        </mxCell>
        <mxCell id="J9K5oojxjtf_GO5V4qHu-23" style="edgeStyle=orthogonalEdgeStyle;rounded=0;orthogonalLoop=1;jettySize=auto;html=1;exitX=0.5;exitY=1;exitDx=0;exitDy=0;entryX=0.5;entryY=0;entryDx=0;entryDy=0;" edge="1" parent="1" source="J9K5oojxjtf_GO5V4qHu-19" target="J9K5oojxjtf_GO5V4qHu-20">
          <mxGeometry relative="1" as="geometry" />
        </mxCell>
        <mxCell id="J9K5oojxjtf_GO5V4qHu-19" value="" style="rounded=1;whiteSpace=wrap;html=1;" vertex="1" parent="1">
          <mxGeometry x="345" y="670" width="105" height="50" as="geometry" />
        </mxCell>
        <mxCell id="J9K5oojxjtf_GO5V4qHu-24" style="edgeStyle=orthogonalEdgeStyle;rounded=0;orthogonalLoop=1;jettySize=auto;html=1;exitX=0.5;exitY=1;exitDx=0;exitDy=0;entryX=0.5;entryY=0;entryDx=0;entryDy=0;" edge="1" parent="1" source="J9K5oojxjtf_GO5V4qHu-20" target="J9K5oojxjtf_GO5V4qHu-21">
          <mxGeometry relative="1" as="geometry" />
        </mxCell>
        <mxCell id="J9K5oojxjtf_GO5V4qHu-20" value="" style="rounded=1;whiteSpace=wrap;html=1;" vertex="1" parent="1">
          <mxGeometry x="345" y="740" width="105" height="50" as="geometry" />
        </mxCell>
        <mxCell id="J9K5oojxjtf_GO5V4qHu-43" style="edgeStyle=orthogonalEdgeStyle;rounded=0;orthogonalLoop=1;jettySize=auto;html=1;exitX=0.5;exitY=1;exitDx=0;exitDy=0;entryX=0.5;entryY=0;entryDx=0;entryDy=0;" edge="1" parent="1" source="J9K5oojxjtf_GO5V4qHu-21" target="J9K5oojxjtf_GO5V4qHu-25">
          <mxGeometry relative="1" as="geometry" />
        </mxCell>
        <mxCell id="J9K5oojxjtf_GO5V4qHu-44" style="edgeStyle=orthogonalEdgeStyle;rounded=0;orthogonalLoop=1;jettySize=auto;html=1;exitX=0.5;exitY=1;exitDx=0;exitDy=0;" edge="1" parent="1" source="J9K5oojxjtf_GO5V4qHu-21" target="J9K5oojxjtf_GO5V4qHu-26">
          <mxGeometry relative="1" as="geometry" />
        </mxCell>
        <mxCell id="J9K5oojxjtf_GO5V4qHu-21" value="" style="rounded=1;whiteSpace=wrap;html=1;" vertex="1" parent="1">
          <mxGeometry x="345" y="810" width="105" height="50" as="geometry" />
        </mxCell>
        <mxCell id="J9K5oojxjtf_GO5V4qHu-46" style="edgeStyle=orthogonalEdgeStyle;rounded=0;orthogonalLoop=1;jettySize=auto;html=1;exitX=0.5;exitY=1;exitDx=0;exitDy=0;entryX=0.5;entryY=0;entryDx=0;entryDy=0;" edge="1" parent="1" source="J9K5oojxjtf_GO5V4qHu-25" target="J9K5oojxjtf_GO5V4qHu-27">
          <mxGeometry relative="1" as="geometry" />
        </mxCell>
        <mxCell id="J9K5oojxjtf_GO5V4qHu-25" value="" style="rhombus;whiteSpace=wrap;html=1;" vertex="1" parent="1">
          <mxGeometry x="290" y="900" width="70" height="70" as="geometry" />
        </mxCell>
        <mxCell id="J9K5oojxjtf_GO5V4qHu-47" style="edgeStyle=orthogonalEdgeStyle;rounded=0;orthogonalLoop=1;jettySize=auto;html=1;exitX=0.5;exitY=1;exitDx=0;exitDy=0;entryX=0.5;entryY=0;entryDx=0;entryDy=0;" edge="1" parent="1" source="J9K5oojxjtf_GO5V4qHu-26" target="J9K5oojxjtf_GO5V4qHu-28">
          <mxGeometry relative="1" as="geometry" />
        </mxCell>
        <mxCell id="J9K5oojxjtf_GO5V4qHu-26" value="" style="rhombus;whiteSpace=wrap;html=1;" vertex="1" parent="1">
          <mxGeometry x="440" y="900" width="70" height="70" as="geometry" />
        </mxCell>
        <mxCell id="J9K5oojxjtf_GO5V4qHu-48" style="edgeStyle=orthogonalEdgeStyle;rounded=0;orthogonalLoop=1;jettySize=auto;html=1;exitX=0.5;exitY=1;exitDx=0;exitDy=0;" edge="1" parent="1" source="J9K5oojxjtf_GO5V4qHu-27" target="J9K5oojxjtf_GO5V4qHu-29">
          <mxGeometry relative="1" as="geometry" />
        </mxCell>
        <mxCell id="J9K5oojxjtf_GO5V4qHu-27" value="" style="rounded=1;whiteSpace=wrap;html=1;" vertex="1" parent="1">
          <mxGeometry x="272.5" y="1020" width="105" height="50" as="geometry" />
        </mxCell>
        <mxCell id="J9K5oojxjtf_GO5V4qHu-51" style="edgeStyle=orthogonalEdgeStyle;rounded=0;orthogonalLoop=1;jettySize=auto;html=1;exitX=0.5;exitY=1;exitDx=0;exitDy=0;entryX=0.5;entryY=0;entryDx=0;entryDy=0;" edge="1" parent="1" source="J9K5oojxjtf_GO5V4qHu-28" target="J9K5oojxjtf_GO5V4qHu-29">
          <mxGeometry relative="1" as="geometry" />
        </mxCell>
        <mxCell id="J9K5oojxjtf_GO5V4qHu-28" value="" style="rounded=1;whiteSpace=wrap;html=1;" vertex="1" parent="1">
          <mxGeometry x="422.5" y="1020" width="105" height="50" as="geometry" />
        </mxCell>
        <mxCell id="J9K5oojxjtf_GO5V4qHu-52" style="edgeStyle=orthogonalEdgeStyle;rounded=0;orthogonalLoop=1;jettySize=auto;html=1;exitX=0;exitY=0.5;exitDx=0;exitDy=0;entryX=0;entryY=0.5;entryDx=0;entryDy=0;" edge="1" parent="1" source="J9K5oojxjtf_GO5V4qHu-29" target="J9K5oojxjtf_GO5V4qHu-8">
          <mxGeometry relative="1" as="geometry">
            <Array as="points">
              <mxPoint x="260" y="1135" />
              <mxPoint x="260" y="400" />
            </Array>
          </mxGeometry>
        </mxCell>
        <mxCell id="J9K5oojxjtf_GO5V4qHu-29" value="" style="rounded=1;whiteSpace=wrap;html=1;" vertex="1" parent="1">
          <mxGeometry x="345" y="1110" width="105" height="50" as="geometry" />
        </mxCell>
        <mxCell id="J9K5oojxjtf_GO5V4qHu-30" value="" style="rounded=1;whiteSpace=wrap;html=1;" vertex="1" parent="1">
          <mxGeometry x="145" y="1110" width="105" height="50" as="geometry" />
        </mxCell>
        <mxCell id="J9K5oojxjtf_GO5V4qHu-32" value="Start" style="text;html=1;strokeColor=none;fillColor=none;align=center;verticalAlign=middle;whiteSpace=wrap;rounded=0;" vertex="1" parent="1">
          <mxGeometry x="250" y="95" width="40" height="20" as="geometry" />
        </mxCell>
        <mxCell id="J9K5oojxjtf_GO5V4qHu-33" value="Initialize PB1 as Output Pin" style="text;html=1;strokeColor=none;fillColor=none;align=center;verticalAlign=middle;whiteSpace=wrap;rounded=0;" vertex="1" parent="1">
          <mxGeometry x="250" y="175" width="40" height="20" as="geometry" />
        </mxCell>
        <mxCell id="J9K5oojxjtf_GO5V4qHu-35" value="Set count as 10" style="text;html=1;strokeColor=none;fillColor=none;align=center;verticalAlign=middle;whiteSpace=wrap;rounded=0;" vertex="1" parent="1">
          <mxGeometry x="250" y="255" width="40" height="20" as="geometry" />
        </mxCell>
        <mxCell id="J9K5oojxjtf_GO5V4qHu-36" value="Start Interupt" style="text;html=1;strokeColor=none;fillColor=none;align=center;verticalAlign=middle;whiteSpace=wrap;rounded=0;" vertex="1" parent="1">
          <mxGeometry x="250" y="345" width="40" height="20" as="geometry" />
        </mxCell>
        <mxCell id="J9K5oojxjtf_GO5V4qHu-37" value="While(1)" style="text;html=1;strokeColor=none;fillColor=none;align=center;verticalAlign=middle;whiteSpace=wrap;rounded=0;" vertex="1" parent="1">
          <mxGeometry x="495" y="390" width="40" height="20" as="geometry" />
        </mxCell>
        <mxCell id="J9K5oojxjtf_GO5V4qHu-38" value="Increment counter" style="text;html=1;strokeColor=none;fillColor=none;align=center;verticalAlign=middle;whiteSpace=wrap;rounded=0;" vertex="1" parent="1">
          <mxGeometry x="495" y="465" width="40" height="20" as="geometry" />
        </mxCell>
        <mxCell id="J9K5oojxjtf_GO5V4qHu-39" value="Check Overflow" style="text;html=1;strokeColor=none;fillColor=none;align=center;verticalAlign=middle;whiteSpace=wrap;rounded=0;" vertex="1" parent="1">
          <mxGeometry x="500" y="545" width="40" height="20" as="geometry" />
        </mxCell>
        <mxCell id="J9K5oojxjtf_GO5V4qHu-40" value="Occured" style="text;html=1;strokeColor=none;fillColor=none;align=center;verticalAlign=middle;whiteSpace=wrap;rounded=0;" vertex="1" parent="1">
          <mxGeometry x="374" y="615" width="40" height="20" as="geometry" />
        </mxCell>
        <mxCell id="J9K5oojxjtf_GO5V4qHu-42" value="Not Occured" style="text;html=1;strokeColor=none;fillColor=none;align=center;verticalAlign=middle;whiteSpace=wrap;rounded=0;" vertex="1" parent="1">
          <mxGeometry x="655" y="615" width="40" height="20" as="geometry" />
        </mxCell>
        <mxCell id="J9K5oojxjtf_GO5V4qHu-53" value="Call Interrupt" style="text;html=1;strokeColor=none;fillColor=none;align=center;verticalAlign=middle;whiteSpace=wrap;rounded=0;" vertex="1" parent="1">
          <mxGeometry x="374" y="685" width="40" height="20" as="geometry" />
        </mxCell>
        <mxCell id="J9K5oojxjtf_GO5V4qHu-54" value="Decrement the factor variable" style="text;html=1;strokeColor=none;fillColor=none;align=center;verticalAlign=middle;whiteSpace=wrap;rounded=0;" vertex="1" parent="1">
          <mxGeometry x="374" y="755" width="40" height="20" as="geometry" />
        </mxCell>
        <mxCell id="J9K5oojxjtf_GO5V4qHu-55" value="Check if the value is -1" style="text;html=1;strokeColor=none;fillColor=none;align=center;verticalAlign=middle;whiteSpace=wrap;rounded=0;" vertex="1" parent="1">
          <mxGeometry x="360" y="825" width="66" height="20" as="geometry" />
        </mxCell>
        <mxCell id="J9K5oojxjtf_GO5V4qHu-56" value="True" style="text;html=1;strokeColor=none;fillColor=none;align=center;verticalAlign=middle;whiteSpace=wrap;rounded=0;" vertex="1" parent="1">
          <mxGeometry x="305" y="925" width="40" height="20" as="geometry" />
        </mxCell>
        <mxCell id="J9K5oojxjtf_GO5V4qHu-57" value="False" style="text;html=1;strokeColor=none;fillColor=none;align=center;verticalAlign=middle;whiteSpace=wrap;rounded=0;" vertex="1" parent="1">
          <mxGeometry x="455" y="925" width="40" height="20" as="geometry" />
        </mxCell>
        <mxCell id="J9K5oojxjtf_GO5V4qHu-58" value="Reset count and PB1" style="text;html=1;strokeColor=none;fillColor=none;align=center;verticalAlign=middle;whiteSpace=wrap;rounded=0;" vertex="1" parent="1">
          <mxGeometry x="300" y="1035" width="60" height="20" as="geometry" />
        </mxCell>
        <mxCell id="J9K5oojxjtf_GO5V4qHu-59" value="SET PB1" style="text;html=1;strokeColor=none;fillColor=none;align=center;verticalAlign=middle;whiteSpace=wrap;rounded=0;" vertex="1" parent="1">
          <mxGeometry x="455" y="1035" width="40" height="20" as="geometry" />
        </mxCell>
        <mxCell id="J9K5oojxjtf_GO5V4qHu-60" value="Return" style="text;html=1;strokeColor=none;fillColor=none;align=center;verticalAlign=middle;whiteSpace=wrap;rounded=0;" vertex="1" parent="1">
          <mxGeometry x="374" y="1125" width="40" height="20" as="geometry" />
        </mxCell>
        <mxCell id="J9K5oojxjtf_GO5V4qHu-61" value="End" style="text;html=1;strokeColor=none;fillColor=none;align=center;verticalAlign=middle;whiteSpace=wrap;rounded=0;" vertex="1" parent="1">
          <mxGeometry x="177.5" y="1125" width="40" height="20" as="geometry" />
        </mxCell>
      </root>
    </mxGraphModel>
  </diagram>
</mxfile>
